<?xml version="1.0" encoding="UTF-8" standalone="no"?>
<!-- Created with Inkscape (http://www.inkscape.org/) -->

<svg
   width="44.732208mm"
   height="44.732208mm"
   viewBox="0 0 44.732208 44.732208"
   version="1.1"
   id="svg5"
   xml:space="preserve"
   xmlns:inkscape="http://www.inkscape.org/namespaces/inkscape"
   xmlns:sodipodi="http://sodipodi.sourceforge.net/DTD/sodipodi-0.dtd"
   xmlns="http://www.w3.org/2000/svg"
   xmlns:svg="http://www.w3.org/2000/svg"><sodipodi:namedview
     id="namedview7"
     pagecolor="#ffffff"
     bordercolor="#000000"
     borderopacity="0.25"
     inkscape:showpageshadow="2"
     inkscape:pageopacity="0.0"
     inkscape:pagecheckerboard="0"
     inkscape:deskcolor="#d1d1d1"
     inkscape:document-units="mm"
     showgrid="false"
     showguides="true" /><defs
     id="defs2"><inkscape:path-effect
       effect="fillet_chamfer"
       id="path-effect355"
       is_visible="true"
       lpeversion="1"
       nodesatellites_param="F,0,0,1,0,0.5,0,1 @ F,0,0,1,0,0.5,0,1 @ F,0,0,1,0,0.5,0,1 @ F,0,0,1,0,0.3,0,1 @ F,0,0,1,0,0.7,0,1 @ F,0,0,1,0,0.3,0,1 @ F,0,0,1,0,0.5,0,1 @ F,0,0,1,0,0.5,0,1 @ F,0,0,1,0,0.5,0,1 @ F,0,0,1,0,0.5,0,1 @ F,0,0,1,0,0.3,0,1 @ F,0,0,1,0,0.5,0,1"
       unit="px"
       method="auto"
       mode="F"
       radius="0"
       chamfer_steps="1"
       flexible="false"
       use_knot_distance="true"
       apply_no_radius="true"
       apply_with_radius="true"
       only_selected="false"
       hide_knots="false" /><filter
       inkscape:collect="always"
       style="color-interpolation-filters:sRGB"
       id="filter5232"
       x="-0.1276516"
       y="-0.1276516"
       width="1.2553031"
       height="1.2553031"><feGaussianBlur
         inkscape:collect="always"
         stdDeviation="1.8953383"
         id="feGaussianBlur5234" /></filter></defs><g
     inkscape:label="Layer 1"
     inkscape:groupmode="layer"
     id="layer1"
     transform="translate(-249.95518,-232.28362)"><rect
       style="opacity:0.793846;mix-blend-mode:normal;fill:#949494;fill-opacity:0.54902;stroke:none;stroke-width:0.5;stroke-linecap:round;stroke-linejoin:round;stroke-dasharray:none;stroke-opacity:0.4;filter:url(#filter5232)"
       id="rect4747"
       width="35.634586"
       height="35.634586"
       x="254.50398"
       y="236.83244"
       ry="7.2888923" /><rect
       style="fill:#ffffff;fill-opacity:1;stroke:#5a5a5a;stroke-width:0.5;stroke-linecap:round;stroke-linejoin:round;stroke-dasharray:none;stroke-opacity:0.4"
       id="rect2052"
       width="35.634586"
       height="35.634586"
       x="253.67471"
       y="233.59195"
       ry="7.2888923" /><path
       id="rect193"
       style="fill:#1cc578;fill-opacity:1;stroke:none;stroke-width:1.00939;stroke-linecap:round;stroke-linejoin:round"
       d="m 261.33862,243.16009 v 16.49816 a 0.5,0.5 45 0 0 0.5,0.5 h 4.72472 a 0.5,0.5 135 0 0 0.5,-0.5 v -7.83358 a 0.09748348,0.09748348 161.99869 0 1 0.17635,-0.0573 l 4.27285,5.88052 a 0.46208135,0.46208135 177.42683 0 0 0.7705,-0.0346 l 3.48377,-5.83105 a 0.08279232,0.08279232 15.428142 0 1 0.15387,0.0425 v 7.83358 a 0.5,0.5 45 0 0 0.5,0.5 h 4.72471 a 0.5,0.5 135 0 0 0.5,-0.5 v -16.49816 a 0.5,0.5 45 0 0 -0.5,-0.5 h -4.79338 a 0.91448662,0.91448662 151.33215 0 0 -0.76986,0.42092 l -3.92817,6.12715 a 0.19233276,0.19233276 0 0 1 -0.32382,0 l -3.92817,-6.12715 a 0.91448662,0.91448662 28.667847 0 0 -0.76986,-0.42092 l -4.79351,0 a 0.5,0.5 135 0 0 -0.5,0.5 z"
       sodipodi:nodetypes="ccccccccccccc"
       inkscape:path-effect="#path-effect355"
       inkscape:original-d="m 261.33862,242.66009 v 17.49816 h 5.72472 v -8.63358 l 4.86068,6.68951 3.99666,-6.68951 v 8.63358 h 5.72471 v -17.49816 h -5.79338 l -4.35994,6.80062 -4.35994,-6.80062 z" /></g></svg>
